<svg width="19" height="20" viewBox="0 0 19 20" fill="none" xmlns="http://www.w3.org/2000/svg">
<circle opacity="0.9" cx="9.5" cy="9.68958" r="9.5" fill="url(#paint0_linear_104_544)"/>
<circle cx="9.5" cy="9.68958" r="8" fill="white"/>
<path d="M14.2916 12.6894H14.2331C14.1479 12.6695 14.0961 12.6074 14.049 12.5259C13.0214 10.9446 10.9888 10.5845 9.37042 10.5031C9.25959 10.4917 9.24793 10.5102 9.24779 10.6383C9.24711 11.1928 9.24752 11.7472 9.24752 12.3019C9.25539 12.4939 9.23273 12.6624 9.02532 12.6896H8.96685C8.81491 12.6401 8.7068 12.5122 8.58715 12.4079C8.10286 11.9855 7.61762 11.5644 7.13388 11.1412C6.28983 10.4028 5.44375 9.66722 4.59862 8.93041C4.54572 8.88435 4.51818 8.82841 4.5 8.76073V8.62752C4.51411 8.53727 4.56756 8.48288 4.62833 8.42972C5.63882 7.54749 6.65 6.66619 7.66171 5.78581C8.03856 5.45789 8.41433 5.12843 8.79118 4.80067C8.84788 4.75137 8.90431 4.70362 8.98014 4.69357C9.17087 4.65788 9.26312 4.86789 9.24603 5.05595C9.24603 5.64766 9.2463 6.23921 9.24589 6.83092C9.24589 6.9938 9.24698 6.99133 9.38168 6.98283C10.2662 6.94605 11.1646 7.09996 11.9834 7.48908C13.7368 8.27503 14.564 10.3402 14.4961 12.4001C14.4959 12.608 14.4647 12.6523 14.2917 12.6896L14.2916 12.6894Z" fill="#131F2B"/>
<defs>
<linearGradient id="paint0_linear_104_544" x1="22.9504" y1="10.0315" x2="-7.20954" y2="10.0315" gradientUnits="userSpaceOnUse">
<stop stop-color="white"/>
<stop offset="1" stop-color="white" stop-opacity="0"/>
</linearGradient>
</defs>
</svg>
