<svg width="13" height="13" viewBox="0 0 13 13" fill="none" xmlns="http://www.w3.org/2000/svg">
<g clip-path="url(#clip0_104_200)">
<path d="M0.222418 4.916C1.02863 5.98031 1.86882 7.01519 2.72259 8.0378C3.46313 8.92309 4.2082 9.80102 4.95327 10.6789C5.26127 11.0419 5.57832 11.3926 5.87499 11.7653C6.05616 11.9934 6.26677 12.1356 6.49776 12.1871C6.49927 12.1888 6.50078 12.1896 6.50229 12.1896L6.50229 12.1871C6.73329 12.1356 6.9439 11.9934 7.12507 11.7653C7.42174 11.3926 7.73879 11.0419 8.04679 10.6789C8.79186 9.80102 9.53693 8.92309 10.2775 8.0378C11.1312 7.01519 11.9714 5.98031 12.7776 4.91601C13.217 4.29802 12.995 3.26069 12.2024 3.18958L12.0235 3.18958C11.6 3.23617 11.2445 3.4814 10.8685 3.66042C9.69998 4.20729 8.54048 4.78113 7.37419 5.3378C7.09337 5.47513 6.80123 5.63944 6.50229 5.71301L6.49777 5.71301C6.19883 5.63944 5.90669 5.47513 5.62587 5.3378C4.45958 4.78113 3.30008 4.20729 2.13152 3.66042C1.75559 3.4814 1.40004 3.23617 0.976547 3.18957L0.79764 3.18957C0.00501209 3.26069 -0.216924 4.29802 0.222418 4.916Z" fill="white"/>
</g>
<circle cx="7" cy="2.18958" r="2" fill="white"/>
<defs>
<clipPath id="clip0_104_200">
<rect width="13" height="9" fill="white" transform="matrix(-1 -8.74228e-08 -8.74228e-08 1 13 3.18958)"/>
</clipPath>
</defs>
</svg>
