<svg width="8" height="13" viewBox="0 0 8 13" fill="none" xmlns="http://www.w3.org/2000/svg">
<g clip-path="url(#clip0_104_585)">
<path d="M0 7.06988C1.4867 4.8831 2.9551 2.6829 4.43237 0.489124C4.57695 0.23664 4.84526 0.346409 4.82175 0.591604C4.70209 2.13508 4.58384 3.6787 4.46039 5.22188C4.45208 5.3178 4.47432 5.34768 4.57286 5.34725C5.52913 5.34316 6.4854 5.34521 7.44153 5.34404C7.68408 5.31955 7.80233 5.52684 7.63847 5.72568C6.13389 7.92223 4.69674 10.178 3.15894 12.3455H3.01423C2.88359 12.2888 2.84628 12.2299 2.85952 12.0615C2.87782 11.8293 2.89415 11.5969 2.91386 11.3649C3.01676 10.0836 3.11052 8.8017 3.213 7.52047C3.2237 7.40385 3.2023 7.3849 3.06969 7.38461C2.12975 7.38242 1.18981 7.38548 0.249872 7.38344C0.133593 7.38286 0.0328001 7.35735 0 7.21988V7.06988Z" fill="#FEB702"/>
</g>
<defs>
<clipPath id="clip0_104_585">
<rect width="8" height="13" fill="white"/>
</clipPath>
</defs>
</svg>
