<svg width="12" height="13" viewBox="0 0 12 13" fill="none" xmlns="http://www.w3.org/2000/svg">
<path d="M5.05127 0.43396C4.75027 0.43396 4.49297 0.637116 4.43515 0.919116L4.22528 1.94802C3.70952 2.13424 3.23262 2.3944 2.81385 2.72263L1.78044 2.38279C1.49578 2.28919 1.18258 2.40158 1.03177 2.64998L0.0842669 4.21794C-0.0659191 4.46694 -0.0112587 4.78306 0.215591 4.97146L1.04404 5.65935C1.00095 5.91216 0.972854 6.16953 0.972854 6.43396C0.972854 6.69839 1.00095 6.95576 1.04404 7.20857L0.215591 7.89646C-0.0112587 8.08486 -0.0659191 8.40098 0.0842669 8.64998L1.03177 10.2179C1.18195 10.4669 1.49578 10.5793 1.78044 10.4863L2.81385 10.1465C3.23248 10.4745 3.70975 10.7338 4.22528 10.9199L4.43515 11.9488C4.49297 12.2308 4.75027 12.434 5.05127 12.434H6.94873C7.24973 12.434 7.50703 12.2308 7.56485 11.9488L7.77472 10.9199C8.29048 10.7337 8.76738 10.4735 9.18615 10.1453L10.2196 10.4851C10.5042 10.5787 10.8174 10.4669 10.9682 10.2179L11.9157 8.6488C12.0659 8.3998 12.0113 8.08486 11.7844 7.89646L10.956 7.20857C10.999 6.95576 11.0271 6.69839 11.0271 6.43396C11.0271 6.16953 10.999 5.91216 10.956 5.65935L11.7844 4.97146C12.0113 4.78306 12.0659 4.46694 11.9157 4.21794L10.9682 2.64998C10.818 2.40098 10.5042 2.28862 10.2196 2.38162L9.18615 2.72146C8.76752 2.39344 8.29025 2.13416 7.77472 1.94802L7.56485 0.919116C7.50703 0.637116 7.24973 0.43396 6.94873 0.43396H5.05127ZM6 4.03396C7.38812 4.03396 8.51357 5.10856 8.51357 6.43396C8.51357 7.75936 7.38812 8.83396 6 8.83396C4.61188 8.83396 3.48643 7.75936 3.48643 6.43396C3.48643 5.10856 4.61188 4.03396 6 4.03396Z" fill="#131F2B"/>
</svg>
